<svg id="svg" version="1.1" xmlns="http://www.w3.org/2000/svg" xmlns:xlink="http://www.w3.org/1999/xlink" width="400" height="468.00731261425955" viewBox="0, 0, 400,468.00731261425955"><g id="svgg"><path id="path0" d="M189.762 146.645 C 183.959 147.531,182.233 147.873,177.809 149.016 C 149.013 156.455,125.543 178.571,116.331 206.947 C 115.007 211.026,114.440 213.426,112.920 221.389 C 112.245 224.926,112.245 243.082,112.920 246.618 C 114.572 255.274,115.300 258.191,117.034 263.105 C 124.500 284.263,139.453 301.515,159.415 312.003 C 188.578 327.326,224.476 324.764,251.246 305.450 C 257.576 300.882,261.765 296.951,268.156 289.578 C 275.248 281.396,282.097 267.751,285.222 255.576 C 297.570 207.470,266.531 157.866,217.864 147.930 C 210.030 146.330,196.019 145.690,189.762 146.645 M168.495 194.667 C 171.602 196.274,170.652 200.731,167.203 200.731 C 163.980 200.731,162.607 197.483,164.871 195.219 C 166.055 194.035,166.996 193.892,168.495 194.667 M168.006 205.522 C 170.889 206.248,170.808 205.901,170.893 217.982 C 170.982 230.687,170.896 230.375,173.868 228.837 C 177.984 226.707,177.697 227.138,177.697 223.099 C 177.697 219.158,177.928 218.643,179.689 218.655 C 180.870 218.664,183.883 219.872,183.954 220.366 C 183.977 220.527,184.041 224.652,184.096 229.534 C 184.228 241.183,184.781 242.671,187.435 238.522 C 190.074 234.396,190.972 231.201,191.202 225.107 C 191.455 218.437,192.360 217.431,196.538 219.177 L 197.806 219.707 197.806 227.454 L 197.806 235.201 198.812 233.905 C 202.315 229.389,203.318 227.742,203.658 225.953 C 204.453 221.760,206.566 218.857,209.033 218.569 C 212.130 218.207,215.618 219.758,216.222 221.766 C 216.402 222.363,216.959 223.717,217.461 224.775 C 217.962 225.832,218.456 227.441,218.558 228.350 L 218.745 230.002 219.701 229.376 C 220.228 229.031,220.965 228.359,221.340 227.883 C 222.060 226.968,223.760 226.837,224.035 227.674 C 224.223 228.246,221.408 230.961,219.754 231.805 C 218.672 232.357,218.347 232.817,217.813 234.550 C 216.418 239.081,214.170 241.011,210.247 241.047 C 206.457 241.082,203.691 238.017,203.662 233.751 C 203.650 232.105,202.956 232.660,200.437 236.327 L 197.849 240.094 197.455 246.830 C 196.532 262.611,194.283 266.907,186.472 267.808 C 178.244 268.757,179.032 259.273,188.148 247.623 C 190.960 244.030,191.224 243.553,191.224 242.057 L 191.225 240.422 190.134 241.617 C 187.965 243.991,184.051 244.605,180.973 243.053 C 178.466 241.789,177.916 240.350,177.755 234.644 C 177.682 232.080,177.516 229.988,177.386 229.997 C 177.255 230.005,175.946 230.869,174.477 231.916 L 171.805 233.821 171.716 244.424 C 171.581 260.420,169.564 264.351,161.490 264.351 C 150.778 264.351,151.576 249.340,162.927 237.307 L 165.276 234.818 164.908 230.663 C 164.706 228.378,164.539 221.868,164.537 216.197 C 164.533 204.162,164.387 204.611,168.006 205.522 M228.154 223.285 C 228.154 224.852,229.431 225.966,230.684 225.493 C 231.929 225.023,232.912 225.354,233.167 226.327 C 233.272 226.728,233.590 227.057,233.875 227.057 C 234.159 227.057,234.487 227.303,234.603 227.605 C 234.718 227.907,235.125 228.154,235.505 228.154 C 235.886 228.154,236.197 228.406,236.197 228.714 C 236.197 229.023,236.765 229.843,237.460 230.537 C 239.025 232.102,239.302 233.462,238.891 237.571 L 238.574 240.748 231.261 242.506 C 220.721 245.040,218.345 245.524,218.021 245.198 C 217.863 245.039,217.742 243.001,217.752 240.669 L 217.771 236.429 218.849 235.590 C 219.442 235.129,221.654 233.472,223.766 231.909 C 226.414 229.949,227.642 228.806,227.725 228.225 C 227.795 227.729,228.219 227.240,228.756 227.036 L 229.668 226.689 228.545 225.327 C 227.462 224.013,227.034 222.303,227.788 222.303 C 227.989 222.303,228.154 222.745,228.154 223.285 M210.913 224.223 C 209.590 226.656,209.455 232.535,210.639 236.123 C 211.130 237.612,211.646 237.485,212.679 235.622 C 213.993 233.252,214.076 232.397,213.048 231.846 C 210.956 230.727,209.954 226.813,211.161 224.479 C 211.808 223.229,211.581 222.995,210.913 224.223 M231.068 225.852 C 230.133 226.070,229.542 227.332,229.986 228.162 C 230.416 228.966,231.791 229.123,232.468 228.446 C 233.551 227.364,232.549 225.507,231.068 225.852 M214.352 227.971 C 214.356 228.775,214.431 229.061,214.518 228.606 C 214.606 228.152,214.602 227.493,214.511 227.144 C 214.419 226.794,214.348 227.166,214.352 227.971 M228.611 227.689 C 227.991 227.906,228.030 228.519,228.663 228.519 C 229.521 228.519,229.713 229.659,228.890 229.874 C 228.490 229.979,228.252 230.211,228.362 230.389 C 228.676 230.896,229.873 230.769,230.478 230.165 C 230.780 229.863,231.162 229.622,231.327 229.628 C 231.838 229.649,229.932 231.079,229.393 231.079 C 229.113 231.079,228.885 231.243,228.885 231.444 C 228.885 232.304,231.562 231.155,231.957 230.126 C 232.087 229.788,232.299 229.618,232.429 229.748 C 232.559 229.878,232.280 230.395,231.809 230.897 C 231.337 231.399,231.108 231.810,231.299 231.810 C 231.724 231.810,233.354 230.718,233.724 230.186 C 234.131 229.599,234.056 230.298,233.625 231.103 C 233.083 232.116,233.739 231.975,234.882 230.832 C 235.942 229.772,236.001 228.671,234.995 228.753 C 234.651 228.781,234.369 228.575,234.369 228.296 C 234.369 227.542,233.515 227.681,232.992 228.519 C 232.313 229.606,230.155 229.525,229.536 228.389 C 229.279 227.916,228.862 227.600,228.611 227.689 M223.520 232.830 C 219.419 235.938,218.964 236.327,219.755 236.044 C 220.051 235.939,222.185 235.522,224.497 235.119 C 226.810 234.716,230.594 234.044,232.907 233.627 C 235.219 233.210,237.399 232.842,237.751 232.810 C 238.634 232.729,238.560 232.474,237.303 231.270 L 236.215 230.227 235.451 231.198 C 234.856 231.954,234.391 232.159,233.340 232.128 C 232.599 232.106,231.828 232.127,231.627 232.175 C 229.924 232.582,228.437 232.127,228.042 231.079 C 227.514 229.680,227.846 229.552,223.520 232.830 M237.371 233.522 C 237.877 233.655,238.019 234.219,238.120 236.496 L 238.244 239.305 238.318 236.289 C 238.389 233.371,238.364 233.274,237.569 233.315 C 236.973 233.345,236.919 233.403,237.371 233.522 M231.391 234.508 L 229.326 234.918 230.180 235.558 C 231.268 236.373,231.548 236.361,232.358 235.466 C 232.722 235.064,233.314 234.735,233.673 234.735 C 234.032 234.735,234.428 234.570,234.552 234.369 C 234.823 233.932,234.139 233.962,231.391 234.508 M235.375 234.621 C 235.023 234.713,234.735 234.941,234.735 235.127 C 234.735 235.314,234.431 235.466,234.060 235.466 C 233.689 235.466,233.088 235.795,232.724 236.197 C 231.865 237.146,230.924 237.125,230.002 236.135 C 229.308 235.390,229.222 235.379,228.588 235.952 C 228.217 236.288,227.494 236.563,226.981 236.563 C 226.469 236.563,225.830 236.827,225.562 237.151 C 225.189 237.600,224.693 237.686,223.452 237.516 C 222.460 237.380,221.638 237.454,221.333 237.707 C 221.050 237.942,220.283 238.031,219.558 237.913 C 218.307 237.710,218.282 237.731,218.282 238.963 C 218.282 239.654,218.323 240.219,218.373 240.219 C 218.533 240.219,224.255 239.059,225.777 238.718 C 226.581 238.537,229.584 237.950,232.450 237.413 L 237.660 236.437 237.660 235.403 C 237.660 234.344,237.130 234.163,235.375 234.621 M225.046 235.522 C 221.034 236.131,219.013 236.611,219.013 236.955 C 219.013 237.422,220.251 237.381,221.356 236.878 C 222.052 236.560,222.533 236.569,223.369 236.916 C 224.338 237.317,224.583 237.280,225.446 236.601 C 225.984 236.178,226.803 235.832,227.267 235.832 C 227.731 235.832,228.212 235.667,228.336 235.466 C 228.595 235.048,228.110 235.057,225.046 235.522 M227.057 238.984 C 217.851 240.891,217.925 240.870,218.645 241.315 C 218.934 241.494,219.341 241.503,219.549 241.336 C 219.757 241.170,220.585 240.942,221.389 240.830 C 222.194 240.719,223.839 240.435,225.046 240.200 C 226.252 239.965,228.004 239.729,228.937 239.676 C 229.871 239.623,230.859 239.436,231.131 239.261 C 231.753 238.862,235.314 238.080,236.654 238.049 C 237.207 238.036,237.660 237.861,237.660 237.660 C 237.660 237.004,235.046 237.330,227.057 238.984 M233.821 239.013 C 233.218 239.094,232.230 239.380,231.627 239.648 C 231.024 239.916,229.132 240.251,227.423 240.393 C 225.714 240.535,223.763 240.882,223.088 241.164 C 222.413 241.446,221.723 241.592,221.555 241.488 C 220.581 240.887,218.282 242.241,218.282 243.416 C 218.282 244.310,218.441 244.605,218.921 244.598 C 220.187 244.582,228.121 242.770,236.619 240.558 C 239.845 239.718,237.642 238.501,233.821 239.013 M163.715 242.281 C 158.428 249.495,157.716 256.658,161.908 260.452 C 164.021 262.364,165.971 252.784,165.318 243.699 L 165.082 240.415 163.715 242.281 M214.808 243.144 C 214.670 243.367,211.886 243.510,207.678 243.510 C 203.470 243.510,200.686 243.367,200.548 243.144 C 200.401 242.905,202.868 242.779,207.678 242.779 C 212.489 242.779,214.956 242.905,214.808 243.144 M248.812 243.144 C 248.678 243.361,246.431 243.510,243.306 243.510 C 240.029 243.510,238.026 243.371,238.026 243.144 C 238.026 242.917,240.105 242.779,243.532 242.779 C 247.109 242.779,248.959 242.907,248.812 243.144 M207.743 246.754 C 208.802 247.939,208.824 248.042,208.638 250.950 C 208.404 254.596,208.404 254.354,208.640 258.065 C 208.934 262.713,207.586 264.112,203.003 263.910 L 200.548 263.803 200.474 254.856 C 200.388 244.593,200.141 245.260,203.969 245.424 C 206.489 245.532,206.726 245.615,207.743 246.754 M216.725 245.795 C 216.923 246.047,217.353 247.569,217.679 249.177 C 218.006 250.786,218.613 253.665,219.027 255.576 C 220.818 263.826,220.815 263.985,218.900 263.985 C 217.940 263.985,217.576 263.783,217.251 263.071 C 216.624 261.695,213.655 261.709,213.308 263.090 C 213.098 263.927,212.919 264.012,211.564 263.913 C 209.872 263.789,209.855 263.730,210.554 260.512 C 210.773 259.506,211.270 257.203,211.659 255.393 C 213.909 244.923,213.757 245.338,215.356 245.338 C 215.911 245.338,216.526 245.544,216.725 245.795 M225.230 248.080 L 225.415 250.640 226.053 249.224 C 226.404 248.445,226.691 247.730,226.691 247.635 C 226.691 246.725,228.349 245.338,229.437 245.338 C 231.275 245.338,231.260 245.659,229.222 250.234 L 227.347 254.441 229.213 258.455 C 231.576 263.540,231.607 264.066,229.536 263.915 C 228.011 263.804,227.980 263.773,226.635 261.060 L 225.277 258.318 225.247 260.695 C 225.210 263.636,224.955 264.073,223.362 263.921 L 222.121 263.803 222.022 255.035 C 221.909 244.908,221.849 245.257,223.672 245.407 L 225.046 245.521 225.230 248.080 M238.686 246.892 C 238.575 248.439,238.566 248.447,237.020 248.559 L 235.466 248.671 235.466 250.821 L 235.466 252.970 236.654 253.085 C 237.778 253.193,237.843 253.279,237.843 254.662 C 237.843 256.045,237.778 256.131,236.654 256.239 L 235.466 256.353 235.466 258.503 L 235.466 260.653 237.020 260.765 C 238.571 260.877,238.574 260.881,238.574 262.340 L 238.574 263.803 235.375 263.908 L 232.176 264.014 232.176 254.920 C 232.176 244.406,231.830 245.338,235.731 245.338 L 238.799 245.338 238.686 246.892 M245.819 245.747 C 247.335 246.522,247.881 247.595,247.889 249.817 L 247.898 251.920 246.663 251.920 C 245.481 251.920,244.367 251.184,244.837 250.715 C 245.325 250.226,244.584 248.629,243.869 248.629 C 241.969 248.629,244.207 253.685,246.131 253.741 C 247.754 253.787,248.577 260.464,247.179 262.241 C 244.557 265.575,239.854 263.769,239.854 259.430 C 239.854 256.468,242.770 256.161,243.144 259.084 C 243.415 261.201,244.743 261.151,244.899 259.019 C 245.003 257.603,244.875 257.393,242.431 254.963 L 239.854 252.401 239.854 250.199 C 239.854 246.406,242.804 244.205,245.819 245.747 M203.729 250.731 C 203.827 252.594,203.933 252.847,204.662 252.950 C 205.507 253.071,205.558 252.941,205.558 250.640 C 205.558 248.768,205.488 248.629,204.552 248.629 C 203.648 248.629,203.623 248.693,203.729 250.731 M189.148 251.645 C 185.844 256.602,184.974 259.238,185.739 261.971 C 187.327 267.642,190.019 262.826,190.693 253.108 C 191.000 248.685,191.074 248.755,189.148 251.645 M224.675 254.122 C 224.547 254.328,224.555 255.007,224.692 255.631 C 224.865 256.418,224.817 256.688,224.536 256.514 C 224.314 256.377,224.132 256.452,224.132 256.682 C 224.132 256.911,224.337 257.027,224.589 256.938 C 224.860 256.842,225.005 256.284,224.944 255.564 C 224.887 254.876,225.045 254.223,225.310 254.055 C 225.644 253.843,225.653 253.757,225.342 253.753 C 225.102 253.750,224.802 253.916,224.675 254.122 M214.824 255.972 C 214.685 256.860,214.490 257.875,214.391 258.227 C 214.251 258.723,214.432 258.867,215.199 258.867 C 216.162 258.867,216.181 258.824,215.958 257.195 C 215.598 254.565,215.123 254.053,214.824 255.972 M203.656 258.501 C 203.656 260.620,203.702 260.739,204.479 260.629 C 205.218 260.524,205.302 260.308,205.302 258.501 C 205.302 256.694,205.218 256.478,204.479 256.373 C 203.702 256.263,203.656 256.382,203.656 258.501 M248.446 267.276 C 248.596 267.518,240.528 267.642,224.519 267.642 C 208.660 267.642,200.366 267.516,200.366 267.276 C 200.366 267.036,208.585 266.910,224.293 266.910 C 239.850 266.910,248.299 267.038,248.446 267.276 " stroke="none" fill="#755d3f" fill-rule="evenodd"></path><path id="path1" d="M0.000 234.004 L 0.000 468.007 200.000 468.007 L 400.000 468.007 400.000 234.004 L 400.000 0.000 200.000 0.000 L 0.000 0.000 0.000 234.004 M207.495 131.637 C 227.644 133.326,247.773 140.923,261.471 152.006 C 268.806 157.940,277.380 166.480,280.405 170.863 C 280.709 171.303,281.165 171.876,281.418 172.136 C 282.211 172.948,287.169 180.648,289.180 184.192 C 294.931 194.322,301.204 212.552,299.204 213.320 C 298.310 213.663,297.795 212.894,297.269 210.428 C 294.338 196.700,285.899 180.362,275.469 168.226 C 232.109 117.774,153.621 123.065,116.019 178.976 C 109.607 188.509,103.103 203.461,101.787 211.692 C 101.554 213.149,100.975 213.669,100.000 213.295 C 98.966 212.898,102.367 200.316,104.737 195.772 C 105.045 195.182,105.298 194.554,105.299 194.377 C 105.304 193.764,110.311 184.076,112.221 180.985 C 132.523 148.131,170.376 128.524,207.495 131.637 M207.967 146.262 C 275.090 153.363,310.208 227.011,273.226 283.122 C 235.967 339.654,149.955 333.355,120.467 271.935 C 91.157 210.887,141.078 139.187,207.967 146.262 M165.323 195.101 C 164.054 195.990,163.713 197.249,164.336 198.740 C 165.153 200.696,167.702 201.272,169.147 199.827 C 171.826 197.148,168.417 192.934,165.323 195.101 M165.106 205.895 C 164.739 206.972,164.672 220.662,164.999 227.720 L 165.344 235.147 162.810 237.774 C 154.656 246.231,151.984 255.606,156.037 261.543 C 158.995 265.876,167.690 264.426,169.889 259.232 C 171.380 255.708,171.629 253.466,171.646 243.372 L 171.664 233.545 174.542 231.580 C 178.251 229.049,178.051 228.903,177.983 234.095 C 177.895 240.807,178.940 242.706,183.162 243.507 C 185.923 244.030,187.739 243.466,189.632 241.497 L 191.147 239.922 191.360 240.985 C 191.739 242.880,191.175 244.358,189.211 246.618 C 179.742 257.511,178.189 268.108,186.143 267.551 C 194.204 266.986,197.439 259.943,197.440 242.954 L 197.441 240.021 199.242 237.550 C 200.233 236.191,201.508 234.344,202.075 233.445 C 203.387 231.370,203.520 231.393,203.814 233.750 C 205.008 243.302,214.795 243.578,217.763 234.143 C 218.274 232.519,218.613 232.053,219.637 231.566 C 220.896 230.969,223.766 228.302,223.766 227.730 C 223.766 226.922,222.032 227.579,220.544 228.951 C 218.735 230.618,218.367 230.466,218.307 228.024 C 218.293 227.450,217.888 226.197,217.407 225.240 C 216.927 224.282,216.419 222.981,216.280 222.349 C 215.881 220.531,212.805 218.647,210.238 218.647 C 207.188 218.647,204.799 221.332,203.867 225.806 C 203.351 228.277,198.793 235.466,197.741 235.466 C 197.576 235.466,197.441 232.020,197.441 227.809 C 197.441 219.017,197.439 219.013,194.081 219.013 C 191.751 219.013,191.548 219.486,191.357 225.369 C 191.159 231.470,189.769 236.020,186.961 239.762 C 184.644 242.849,184.133 241.194,183.913 229.905 C 183.709 219.468,183.769 219.699,181.127 219.175 C 178.361 218.627,178.257 218.763,178.142 223.059 L 178.039 226.922 174.729 228.665 C 172.908 229.623,171.310 230.298,171.176 230.165 C 171.043 230.032,170.851 224.811,170.750 218.565 L 170.567 207.207 169.603 206.488 C 168.377 205.574,165.352 205.174,165.106 205.895 M212.066 223.319 C 212.066 223.475,211.788 224.000,211.449 224.485 C 210.057 226.471,211.107 230.593,213.245 231.539 C 214.424 232.061,214.465 232.324,213.669 234.233 C 212.154 237.867,211.269 238.330,210.438 235.923 C 209.122 232.112,209.449 225.436,211.048 223.492 C 211.467 222.982,212.066 222.881,212.066 223.319 M214.816 229.503 C 214.563 230.124,214.528 230.120,214.246 229.433 C 213.860 228.494,213.813 226.529,214.168 226.169 C 214.564 225.767,215.137 228.716,214.816 229.503 M165.631 246.594 C 165.631 257.271,163.802 262.973,161.248 260.258 C 157.521 256.296,158.483 248.856,163.615 241.956 C 165.553 239.350,165.631 239.528,165.631 246.594 M204.113 243.051 C 206.074 243.117,209.282 243.117,211.243 243.051 C 213.204 242.986,211.600 242.932,207.678 242.932 C 203.757 242.932,202.153 242.986,204.113 243.051 M240.859 243.050 C 242.317 243.120,244.703 243.120,246.161 243.050 C 247.619 242.981,246.426 242.924,243.510 242.924 C 240.594 242.924,239.401 242.981,240.859 243.050 M201.188 245.584 C 200.840 245.722,200.731 247.889,200.731 254.685 L 200.731 263.606 201.671 263.842 C 205.938 264.913,209.138 262.115,208.603 257.780 C 208.351 255.744,208.347 255.433,208.505 250.878 C 208.599 248.196,208.159 246.911,206.871 246.107 C 206.100 245.625,202.029 245.250,201.188 245.584 M214.383 245.620 C 214.149 245.769,213.621 247.370,213.209 249.179 C 212.275 253.277,210.238 263.000,210.238 263.356 C 210.238 264.024,212.870 263.604,213.052 262.907 C 213.377 261.664,216.383 261.712,217.606 262.980 C 218.695 264.110,218.986 264.182,219.827 263.528 C 220.469 263.030,220.563 263.729,218.657 254.845 C 218.247 252.934,217.651 250.138,217.332 248.630 C 216.668 245.490,215.869 244.674,214.383 245.620 M222.415 245.800 C 221.767 246.806,222.000 263.261,222.666 263.618 C 224.330 264.509,224.863 263.738,224.863 260.445 C 224.863 257.521,224.824 257.367,224.132 257.587 C 223.712 257.720,223.400 257.653,223.400 257.429 C 223.400 257.214,223.536 257.038,223.703 257.038 C 224.135 257.038,223.745 254.715,223.258 254.393 C 222.974 254.205,222.989 254.123,223.309 254.119 C 223.560 254.116,223.766 253.824,223.766 253.470 C 223.766 252.659,225.532 251.450,225.630 252.194 C 225.650 252.345,225.831 252.776,226.032 253.152 C 226.292 253.637,226.281 253.764,225.996 253.587 C 225.502 253.282,225.460 254.797,225.941 255.558 C 226.175 255.928,226.081 256.227,225.630 256.543 C 224.881 257.067,227.553 263.311,228.717 263.758 C 231.261 264.734,231.372 263.784,229.250 259.162 C 227.032 254.328,227.038 254.630,229.079 250.026 C 230.823 246.093,230.897 245.335,229.536 245.344 C 228.251 245.352,227.897 245.728,226.712 248.342 C 225.174 251.733,224.863 251.754,224.863 248.468 C 224.863 246.948,224.739 245.692,224.589 245.677 C 224.438 245.662,223.953 245.582,223.510 245.499 C 223.068 245.416,222.575 245.552,222.415 245.800 M232.757 245.650 C 232.475 246.107,232.449 263.284,232.730 263.565 C 233.134 263.969,237.965 263.827,238.393 263.398 C 239.318 262.473,238.416 261.106,236.803 260.988 L 235.283 260.878 235.175 258.410 L 235.067 255.941 236.364 255.941 C 237.594 255.941,237.660 255.878,237.660 254.701 C 237.660 253.433,237.200 253.016,235.802 253.016 C 235.182 253.016,235.101 252.739,235.101 250.640 L 235.101 248.263 236.707 248.263 C 238.350 248.263,238.757 247.903,238.757 246.444 C 238.757 245.414,233.346 244.698,232.757 245.650 M242.596 245.687 C 238.674 247.309,239.087 252.249,243.419 255.522 C 245.462 257.065,245.868 260.846,243.967 260.628 C 243.094 260.527,242.937 260.319,242.779 259.049 C 242.549 257.211,240.156 256.740,239.910 258.485 C 239.532 261.166,241.468 263.620,243.962 263.620 C 248.512 263.620,249.484 256.265,245.299 253.496 C 243.003 251.976,241.854 249.062,243.327 248.497 C 244.330 248.112,244.973 248.661,244.973 249.903 C 244.973 252.405,247.642 252.659,247.826 250.175 C 248.063 246.971,245.275 244.579,242.596 245.687 M215.722 248.263 C 215.722 248.464,215.475 248.629,215.174 248.629 C 214.872 248.629,214.625 248.464,214.625 248.263 C 214.625 248.062,214.872 247.898,215.174 247.898 C 215.475 247.898,215.722 248.062,215.722 248.263 M205.143 248.642 C 206.040 249.122,206.159 252.305,205.306 253.013 C 204.188 253.941,203.656 253.181,203.656 250.651 C 203.656 248.193,203.840 247.944,205.143 248.642 M190.881 253.451 C 190.027 262.590,188.066 266.749,186.117 263.553 C 184.346 260.648,185.613 255.860,189.585 250.450 C 191.345 248.052,191.378 248.128,190.881 253.451 M216.484 250.970 C 216.501 251.191,216.556 251.755,216.608 252.225 C 216.687 252.948,216.566 253.053,215.817 252.910 C 215.275 252.807,214.858 252.936,214.740 253.244 C 214.485 253.908,214.016 253.890,214.016 253.215 C 214.016 252.923,214.132 252.755,214.275 252.843 C 214.417 252.931,214.556 252.636,214.582 252.187 C 214.627 251.434,214.870 249.373,214.955 249.030 C 215.023 248.753,216.453 250.568,216.484 250.970 M216.256 254.262 C 215.741 254.638,215.710 254.923,216.049 256.146 C 216.741 258.637,216.607 259.232,215.356 259.232 C 214.085 259.232,213.980 258.673,214.680 255.636 C 214.975 254.362,215.250 253.870,215.595 254.002 C 215.866 254.106,216.088 254.000,216.088 253.765 C 216.088 253.531,216.262 253.447,216.475 253.578 C 216.723 253.732,216.644 253.978,216.256 254.262 M206.714 254.296 C 206.598 254.598,206.233 254.839,205.902 254.833 C 205.392 254.823,205.409 254.740,206.011 254.285 C 206.898 253.614,206.975 253.615,206.714 254.296 M235.190 254.255 C 235.765 254.692,235.724 254.736,234.780 254.701 C 234.103 254.676,233.795 254.500,233.907 254.205 C 234.126 253.633,234.384 253.643,235.190 254.255 M203.291 254.468 C 203.291 254.662,203.017 254.717,202.682 254.588 C 202.240 254.419,202.156 254.487,202.373 254.839 C 202.574 255.164,202.531 255.236,202.244 255.059 C 202.009 254.913,201.911 254.641,202.027 254.454 C 202.304 254.004,203.291 254.015,203.291 254.468 M101.939 255.850 C 102.114 256.202,102.546 257.642,102.899 259.049 C 117.274 316.422,178.804 348.771,234.972 328.487 C 265.587 317.430,290.523 289.803,297.811 258.867 C 298.580 255.605,299.160 254.762,300.033 255.635 C 301.325 256.927,296.006 272.806,291.405 281.392 C 253.969 351.254,157.825 355.895,114.197 289.945 C 108.140 280.788,102.079 266.485,100.349 257.262 C 100.010 255.454,101.210 254.388,101.939 255.850 M205.143 256.320 C 206.596 257.098,205.750 261.521,204.258 260.948 C 203.785 260.767,203.656 260.208,203.656 258.330 C 203.656 255.871,203.840 255.623,205.143 256.320 M104.885 259.781 L 104.885 260.512 104.570 259.781 C 104.398 259.378,104.256 258.720,104.256 258.318 L 104.256 257.587 104.570 258.318 C 104.743 258.720,104.885 259.378,104.885 259.781 M294.505 260.867 C 294.148 262.186,293.790 263.199,293.709 263.118 C 293.629 263.037,293.851 261.889,294.204 260.566 C 294.556 259.242,294.914 258.229,294.999 258.314 C 295.084 258.399,294.862 259.548,294.505 260.867 M218.490 261.124 C 218.490 262.164,217.806 261.697,217.653 260.552 C 217.542 259.721,217.605 259.620,218.004 259.993 C 218.271 260.243,218.490 260.752,218.490 261.124 M105.616 262.523 C 105.616 262.869,105.500 262.801,105.302 262.340 C 105.129 261.938,104.987 261.362,104.987 261.060 C 104.987 260.715,105.104 260.782,105.302 261.243 C 105.474 261.645,105.616 262.221,105.616 262.523 M107.525 267.824 C 109.018 272.018,109.123 272.382,108.612 271.590 C 108.108 270.809,105.659 263.990,105.692 263.462 C 105.725 262.940,106.128 263.898,107.525 267.824 M292.104 268.406 C 288.949 277.071,282.859 288.295,278.369 293.721 C 276.792 295.626,277.493 294.293,279.651 291.282 C 284.415 284.633,288.705 276.507,291.590 268.661 C 292.596 265.928,293.465 263.814,293.521 263.963 C 293.577 264.112,292.940 266.111,292.104 268.406 M212.523 267.550 C 219.109 267.606,229.886 267.606,236.472 267.550 C 243.058 267.494,237.669 267.449,224.497 267.449 C 211.325 267.449,205.937 267.494,212.523 267.550 M110.269 275.228 C 110.156 275.340,109.815 274.836,109.511 274.108 C 108.728 272.234,108.854 271.954,109.732 273.618 C 110.140 274.391,110.381 275.115,110.269 275.228 M117.807 288.120 C 123.500 296.613,131.785 305.569,138.488 310.478 C 139.641 311.323,140.667 312.113,140.768 312.234 C 145.327 317.696,167.549 327.458,181.901 330.303 C 183.309 330.582,184.049 330.828,183.547 330.849 C 182.169 330.907,174.034 328.947,169.336 327.425 C 144.569 319.402,123.056 301.102,111.515 278.240 C 109.590 274.427,110.345 275.359,112.707 279.711 C 113.963 282.025,116.258 285.810,117.807 288.120 M276.369 296.252 C 270.407 304.797,254.754 317.096,242.447 322.906 C 235.399 326.233,222.190 330.575,220.708 330.051 C 220.480 329.970,221.280 329.697,222.486 329.443 C 241.315 325.482,264.927 310.963,275.442 296.879 C 276.940 294.872,277.682 294.371,276.369 296.252 M219.196 330.530 C 218.592 330.684,217.687 330.809,217.185 330.809 C 216.369 330.809,216.389 330.779,217.367 330.530 C 217.971 330.377,218.876 330.251,219.378 330.251 C 220.194 330.251,220.174 330.281,219.196 330.530 M188.117 331.240 C 190.042 331.639,188.312 331.673,186.106 331.280 C 184.872 331.061,184.735 330.981,185.558 330.963 C 186.161 330.949,187.313 331.074,188.117 331.240 M214.442 331.282 C 213.638 331.449,212.569 331.573,212.066 331.558 C 210.797 331.520,213.319 330.994,214.808 330.986 C 215.722 330.981,215.662 331.030,214.442 331.282 M207.861 332.044 C 205.055 332.344,195.780 332.343,192.687 332.041 C 191.380 331.914,194.753 331.810,200.183 331.810 C 205.612 331.810,209.068 331.915,207.861 332.044 " stroke="none" fill="#fbfbfb" fill-rule="evenodd"></path><path id="path2" d="M198.080 131.532 C 199.337 131.604,201.394 131.604,202.651 131.532 C 203.908 131.461,202.879 131.402,200.366 131.402 C 197.852 131.402,196.824 131.461,198.080 131.532 M192.048 133.707 C 192.399 133.799,192.975 133.799,193.327 133.707 C 193.679 133.615,193.391 133.540,192.687 133.540 C 191.984 133.540,191.696 133.615,192.048 133.707 M207.404 133.707 C 207.756 133.799,208.332 133.799,208.684 133.707 C 209.036 133.615,208.748 133.540,208.044 133.540 C 207.340 133.540,207.052 133.615,207.404 133.707 M241.682 142.596 C 242.386 142.981,243.126 143.297,243.327 143.297 C 243.528 143.297,243.117 142.981,242.413 142.596 C 241.709 142.211,240.969 141.895,240.768 141.895 C 240.567 141.895,240.978 142.211,241.682 142.596 M194.790 146.145 C 195.242 146.232,195.983 146.232,196.435 146.145 C 196.888 146.058,196.517 145.986,195.612 145.986 C 194.707 145.986,194.337 146.058,194.790 146.145 M203.565 146.145 C 204.017 146.232,204.758 146.232,205.210 146.145 C 205.663 146.058,205.293 145.986,204.388 145.986 C 203.483 145.986,203.112 146.058,203.565 146.145 M256.307 148.560 C 256.307 148.645,257.006 149.176,257.861 149.739 C 258.716 150.303,259.222 150.531,258.986 150.245 C 258.532 149.696,256.307 148.296,256.307 148.560 M262.188 152.925 C 262.271 152.975,262.834 153.428,263.437 153.931 L 264.534 154.845 263.647 153.839 C 263.160 153.286,262.598 152.834,262.398 152.834 C 262.199 152.834,262.104 152.875,262.188 152.925 M264.717 154.776 C 264.717 154.839,265.251 155.374,265.905 155.965 L 267.093 157.038 266.019 155.850 C 265.018 154.742,264.717 154.494,264.717 154.776 M131.607 157.861 L 130.347 159.232 131.718 157.972 C 132.473 157.279,133.090 156.662,133.090 156.601 C 133.090 156.322,132.780 156.585,131.607 157.861 M269.104 158.867 C 270.196 159.973,271.172 160.878,271.273 160.878 C 271.374 160.878,270.562 159.973,269.470 158.867 C 268.378 157.761,267.402 156.856,267.301 156.856 C 267.200 156.856,268.012 157.761,269.104 158.867 M131.615 160.420 L 129.616 162.523 131.718 160.524 C 133.672 158.668,133.988 158.318,133.717 158.318 C 133.660 158.318,132.714 159.264,131.615 160.420 M267.642 159.881 C 267.642 159.936,268.917 161.212,270.475 162.715 L 273.309 165.448 270.576 162.614 C 268.037 159.982,267.642 159.614,267.642 159.881 M273.857 163.620 C 274.950 164.726,275.926 165.631,276.026 165.631 C 276.127 165.631,275.315 164.726,274.223 163.620 C 273.131 162.514,272.155 161.609,272.054 161.609 C 271.954 161.609,272.765 162.514,273.857 163.620 M126.496 165.539 L 124.497 167.642 126.600 165.643 C 128.553 163.787,128.870 163.437,128.598 163.437 C 128.541 163.437,127.595 164.383,126.496 165.539 M123.563 165.905 L 122.303 167.276 123.675 166.016 C 124.429 165.323,125.046 164.706,125.046 164.645 C 125.046 164.366,124.736 164.629,123.563 165.905 M123.012 169.378 L 121.938 170.567 123.126 169.493 C 124.234 168.492,124.483 168.190,124.200 168.190 C 124.137 168.190,123.602 168.725,123.012 169.378 M278.259 168.436 C 278.266 168.603,278.866 169.397,279.592 170.201 C 280.915 171.668,280.633 171.103,279.076 169.168 C 278.619 168.599,278.251 168.270,278.259 168.436 M119.145 171.024 C 118.093 172.294,117.647 172.943,117.828 172.943 C 117.929 172.943,118.451 172.367,118.988 171.664 C 119.984 170.357,120.105 169.864,119.145 171.024 M283.167 175.046 C 283.731 175.900,284.262 176.600,284.347 176.600 C 284.611 176.600,283.211 174.374,282.662 173.921 C 282.376 173.685,282.604 174.191,283.167 175.046 M281.170 175.503 C 281.600 176.106,282.033 176.600,282.134 176.600 C 282.234 176.600,281.965 176.106,281.536 175.503 C 281.106 174.899,280.672 174.406,280.572 174.406 C 280.471 174.406,280.740 174.899,281.170 175.503 M115.539 175.868 C 115.110 176.472,114.841 176.965,114.941 176.965 C 115.042 176.965,115.475 176.472,115.905 175.868 C 116.335 175.265,116.604 174.771,116.503 174.771 C 116.403 174.771,115.969 175.265,115.539 175.868 M297.647 212.112 C 297.620 212.789,298.616 213.754,298.973 213.398 C 299.102 213.268,299.011 213.163,298.769 213.163 C 298.528 213.163,298.182 212.793,298.000 212.340 C 297.777 211.783,297.662 211.710,297.647 212.112 M164.657 216.088 C 164.657 217.596,164.721 218.213,164.800 217.459 C 164.879 216.705,164.879 215.471,164.800 214.717 C 164.721 213.963,164.657 214.580,164.657 216.088 M196.958 219.751 C 197.196 220.057,197.455 221.044,197.534 221.945 L 197.678 223.583 197.742 221.891 C 197.789 220.660,197.632 220.063,197.166 219.697 C 196.607 219.259,196.581 219.266,196.958 219.751 M191.310 221.938 C 191.310 222.642,191.385 222.930,191.477 222.578 C 191.569 222.226,191.569 221.650,191.477 221.298 C 191.385 220.946,191.310 221.234,191.310 221.938 M227.474 222.669 C 227.474 222.971,227.615 223.547,227.788 223.949 C 227.986 224.410,228.102 224.477,228.102 224.132 C 228.102 223.830,227.961 223.254,227.788 222.852 C 227.590 222.391,227.474 222.323,227.474 222.669 M164.619 223.766 C 164.619 224.470,164.694 224.758,164.786 224.406 C 164.878 224.054,164.878 223.478,164.786 223.126 C 164.694 222.774,164.619 223.062,164.619 223.766 M228.995 225.726 C 230.196 226.857,230.204 226.859,230.485 226.128 C 230.614 225.791,230.520 225.602,230.250 225.656 C 230.002 225.706,229.388 225.526,228.885 225.254 C 228.010 224.782,228.015 224.803,228.995 225.726 M232.907 226.984 C 232.907 227.546,233.069 227.703,233.486 227.543 C 233.804 227.421,233.928 227.218,233.760 227.093 C 233.592 226.968,233.332 226.716,233.181 226.534 C 233.030 226.352,232.907 226.555,232.907 226.984 M227.971 227.788 C 227.846 227.989,227.837 228.302,227.949 228.484 C 228.061 228.666,227.536 229.333,226.782 229.968 C 225.749 230.837,225.675 230.961,226.480 230.468 C 227.163 230.051,227.597 229.958,227.682 230.212 C 228.004 231.178,228.861 232.021,228.873 231.383 C 228.880 231.048,228.710 230.716,228.496 230.644 C 228.225 230.554,228.222 230.215,228.487 229.517 C 228.756 228.811,228.751 228.519,228.471 228.519 C 228.253 228.519,228.170 228.272,228.286 227.971 C 228.523 227.352,228.315 227.231,227.971 227.788 M234.369 228.188 C 234.369 228.370,234.698 228.519,235.101 228.519 C 235.503 228.519,235.832 228.705,235.832 228.932 C 235.832 229.159,236.408 229.982,237.112 230.761 C 238.609 232.418,238.686 232.799,237.569 233.014 C 236.863 233.150,236.889 233.180,237.751 233.223 C 239.120 233.290,239.051 232.509,237.538 230.805 C 236.868 230.051,236.224 229.168,236.107 228.844 C 235.877 228.209,234.369 227.640,234.369 228.188 M232.340 228.488 C 232.149 228.672,231.581 228.897,231.079 228.987 L 230.165 229.151 231.125 229.201 C 231.654 229.228,232.291 229.004,232.541 228.702 C 233.039 228.103,232.897 227.952,232.340 228.488 M177.618 231.353 C 177.807 234.357,177.961 234.642,178.012 232.084 C 178.040 230.727,177.938 229.616,177.785 229.616 C 177.633 229.616,177.558 230.398,177.618 231.353 M231.356 230.887 C 230.804 231.373,230.475 231.840,230.624 231.925 C 230.774 232.011,231.279 231.608,231.746 231.031 C 232.777 229.759,232.679 229.723,231.356 230.887 M234.552 231.176 L 233.455 232.277 234.644 231.668 C 235.297 231.334,235.832 230.817,235.832 230.521 C 235.832 229.863,235.891 229.833,234.552 231.176 M232.358 231.509 C 231.755 231.918,231.563 232.153,231.931 232.031 C 232.300 231.909,232.734 231.810,232.898 231.810 C 233.061 231.810,233.289 231.563,233.405 231.261 C 233.657 230.604,233.716 230.590,232.358 231.509 M222.486 233.122 L 221.389 234.064 222.578 233.278 C 223.231 232.845,223.766 232.420,223.766 232.333 C 223.766 232.060,223.611 232.155,222.486 233.122 M235.434 233.520 C 236.136 233.667,236.211 233.778,235.800 234.065 C 235.418 234.331,235.410 234.392,235.768 234.297 C 236.619 234.071,236.413 233.457,235.466 233.395 L 234.552 233.335 235.434 233.520 M229.616 234.378 C 227.038 234.934,226.851 235.016,228.519 234.860 C 230.824 234.645,235.015 233.698,233.638 233.704 C 233.135 233.706,231.325 234.009,229.616 234.378 M219.444 235.312 L 217.916 236.620 217.916 240.979 C 217.916 243.377,218.039 245.333,218.190 245.327 C 219.032 245.292,224.193 243.937,223.583 243.911 C 223.181 243.894,222.276 244.027,221.572 244.208 C 220.868 244.388,219.840 244.637,219.287 244.761 L 218.282 244.987 218.282 242.811 C 218.282 240.846,218.361 240.621,219.104 240.477 L 219.927 240.319 219.104 240.269 C 218.397 240.226,218.282 240.015,218.282 238.765 C 218.282 237.344,218.303 237.320,219.199 237.728 C 219.909 238.052,220.321 238.036,221.026 237.659 C 222.204 237.028,221.957 236.769,220.716 237.334 C 219.759 237.771,218.194 237.127,218.904 236.590 C 219.452 236.175,221.344 234.004,221.158 234.004 C 221.056 234.004,220.285 234.592,219.444 235.312 M237.166 234.283 C 237.397 234.431,237.663 234.963,237.756 235.466 C 237.900 236.240,237.934 236.198,237.976 235.192 C 238.014 234.283,237.875 234.005,237.386 234.009 C 236.975 234.013,236.896 234.111,237.166 234.283 M232.538 235.652 C 231.951 236.277,231.449 236.498,230.966 236.344 C 230.498 236.196,230.341 236.257,230.506 236.524 C 230.944 237.233,231.966 236.922,232.843 235.812 C 233.883 234.495,233.710 234.404,232.538 235.652 M228.234 235.670 C 227.787 235.983,227.216 236.124,226.965 235.982 C 226.619 235.787,226.609 235.834,226.926 236.178 C 227.257 236.537,227.532 236.508,228.246 236.040 C 228.745 235.714,229.456 235.550,229.839 235.675 C 230.408 235.861,230.433 235.831,229.982 235.506 C 229.267 234.992,229.193 234.999,228.234 235.670 M237.256 236.897 C 237.537 237.075,237.667 237.479,237.546 237.794 C 237.425 238.110,237.484 238.465,237.676 238.584 C 237.869 238.703,238.026 238.300,238.026 237.682 C 238.026 236.858,237.857 236.565,237.386 236.569 C 236.874 236.573,236.848 236.639,237.256 236.897 M171.614 240.402 C 171.615 242.413,171.677 243.189,171.751 242.127 C 171.825 241.064,171.824 239.419,171.749 238.470 C 171.674 237.522,171.613 238.391,171.614 240.402 M232.907 238.767 C 231.038 239.192,228.592 240.185,229.366 240.203 C 229.731 240.212,230.389 240.026,230.828 239.789 C 231.268 239.552,232.614 239.160,233.821 238.918 C 235.027 238.676,235.603 238.478,235.101 238.477 C 234.598 238.476,233.611 238.606,232.907 238.767 M238.026 240.219 C 238.026 240.420,237.669 240.585,237.233 240.585 C 236.798 240.585,236.543 240.687,236.668 240.812 C 236.997 241.141,238.757 240.636,238.757 240.212 C 238.757 240.015,238.592 239.854,238.391 239.854 C 238.190 239.854,238.026 240.018,238.026 240.219 M223.419 240.566 C 223.077 240.782,223.464 240.827,224.516 240.692 C 225.411 240.578,226.211 240.425,226.295 240.352 C 226.638 240.054,223.908 240.256,223.419 240.566 M219.540 241.526 C 219.149 241.843,219.062 241.981,219.347 241.833 C 219.631 241.686,220.371 241.444,220.992 241.295 C 222.030 241.047,222.045 241.022,221.185 240.988 C 220.670 240.967,219.930 241.210,219.540 241.526 M230.347 242.230 C 229.442 242.493,229.031 242.711,229.433 242.715 C 229.835 242.719,230.823 242.506,231.627 242.241 C 233.521 241.617,232.494 241.608,230.347 242.230 M232.340 245.804 C 232.241 246.059,232.206 249.967,232.260 254.487 L 232.360 262.706 232.542 254.022 C 232.720 245.522,232.704 244.855,232.340 245.804 M214.625 248.263 C 214.625 248.464,214.872 248.629,215.174 248.629 C 215.475 248.629,215.722 248.464,215.722 248.263 C 215.722 248.062,215.475 247.898,215.174 247.898 C 214.872 247.898,214.625 248.062,214.625 248.263 M222.030 250.274 C 222.034 251.079,222.109 251.365,222.196 250.910 C 222.284 250.455,222.281 249.797,222.189 249.447 C 222.098 249.098,222.026 249.470,222.030 250.274 M214.966 250.838 C 214.662 251.026,214.658 251.165,214.953 251.348 C 215.241 251.526,215.247 251.806,214.974 252.318 C 214.762 252.713,214.460 252.957,214.302 252.860 C 214.145 252.763,214.016 252.936,214.016 253.246 C 214.016 253.599,214.470 253.312,215.235 252.478 C 216.771 250.801,216.610 249.822,214.966 250.838 M225.058 252.486 C 224.422 253.970,224.584 254.168,225.620 253.174 C 226.716 252.125,227.102 251.489,226.178 252.256 C 225.786 252.581,225.630 252.575,225.514 252.228 C 225.419 251.944,225.248 252.041,225.058 252.486 M200.470 253.931 C 200.473 254.936,200.544 255.304,200.628 254.748 C 200.712 254.192,200.710 253.370,200.623 252.920 C 200.536 252.470,200.467 252.925,200.470 253.931 M225.229 254.409 C 225.229 254.572,224.970 255.024,224.653 255.415 C 224.336 255.805,224.182 255.919,224.309 255.667 C 224.436 255.416,224.366 255.210,224.153 255.210 C 223.940 255.210,223.766 255.534,223.766 255.930 C 223.766 256.420,223.941 256.583,224.314 256.439 C 224.616 256.324,224.863 256.072,224.863 255.881 C 224.863 255.689,225.016 255.627,225.203 255.743 C 225.390 255.859,225.647 255.786,225.773 255.582 C 225.900 255.377,225.834 255.210,225.627 255.210 C 225.421 255.210,225.346 254.963,225.462 254.662 C 225.578 254.360,225.573 254.113,225.450 254.113 C 225.328 254.113,225.229 254.246,225.229 254.409 M233.878 254.388 C 233.786 254.538,234.201 254.680,234.801 254.702 C 235.526 254.729,235.729 254.639,235.405 254.434 C 234.797 254.048,234.100 254.027,233.878 254.388 M298.793 255.649 C 298.552 255.890,298.355 256.251,298.355 256.450 C 298.355 256.649,298.584 256.499,298.864 256.117 C 299.317 255.496,299.446 255.479,300.052 255.955 C 300.676 256.447,300.691 256.438,300.229 255.850 C 299.637 255.095,299.383 255.059,298.793 255.649 M104.256 258.318 C 104.256 258.720,104.398 259.378,104.570 259.781 L 104.885 260.512 104.885 259.781 C 104.885 259.378,104.743 258.720,104.570 258.318 L 104.256 257.587 104.256 258.318 M294.204 260.566 C 293.851 261.889,293.629 263.037,293.709 263.118 C 293.790 263.199,294.148 262.186,294.505 260.867 C 294.862 259.548,295.084 258.399,294.999 258.314 C 294.914 258.229,294.556 259.242,294.204 260.566 M104.987 261.060 C 104.987 261.362,105.129 261.938,105.302 262.340 C 105.500 262.801,105.616 262.869,105.616 262.523 C 105.616 262.221,105.474 261.645,105.302 261.243 C 105.104 260.782,104.987 260.715,104.987 261.060 M105.667 263.496 C 105.667 264.088,107.556 269.255,107.914 269.642 C 108.094 269.837,107.731 268.521,107.106 266.717 C 105.990 263.495,105.667 262.772,105.667 263.496 M211.700 263.620 L 210.420 263.889 211.587 263.937 C 212.229 263.964,212.856 263.821,212.980 263.620 C 213.104 263.419,213.155 263.276,213.093 263.302 C 213.031 263.329,212.404 263.472,211.700 263.620 M292.949 264.956 C 292.723 265.690,292.684 266.143,292.861 265.961 C 293.219 265.595,293.774 263.620,293.520 263.620 C 293.431 263.620,293.174 264.221,292.949 264.956 M292.391 266.819 C 292.305 266.970,291.450 269.068,290.491 271.481 C 287.795 278.262,283.956 285.274,279.651 291.282 C 277.493 294.293,276.792 295.626,278.369 293.721 C 281.005 290.536,286.099 282.119,288.647 276.738 C 290.719 272.363,293.633 264.641,292.391 266.819 M108.294 271.117 C 108.523 271.620,108.760 271.983,108.820 271.923 C 109.042 271.701,108.495 270.201,108.192 270.201 C 108.019 270.201,108.064 270.613,108.294 271.117 M108.974 272.498 C 108.943 273.057,110.068 275.429,110.269 275.228 C 110.381 275.115,110.140 274.391,109.732 273.618 C 109.324 272.845,108.983 272.341,108.974 272.498 M110.422 275.789 C 110.415 277.140,118.288 290.127,120.888 293.053 C 122.019 294.326,121.832 294.024,117.916 288.239 C 116.307 285.863,113.963 282.025,112.707 279.711 C 111.451 277.396,110.423 275.632,110.422 275.789 M112.445 287.294 C 113.671 289.200,114.077 289.741,114.077 289.470 C 114.077 289.119,112.207 286.289,111.975 286.289 C 111.878 286.289,112.090 286.741,112.445 287.294 M122.121 294.623 C 122.121 295.109,128.748 302.452,128.979 302.222 C 129.092 302.109,128.588 301.436,127.858 300.728 C 127.129 300.019,125.540 298.286,124.326 296.877 C 123.113 295.467,122.121 294.453,122.121 294.623 M275.492 296.801 C 274.774 297.756,272.723 300.013,270.934 301.817 C 269.144 303.621,267.766 305.182,267.870 305.286 C 268.113 305.529,274.615 298.659,276.073 296.618 C 277.590 294.494,277.111 294.645,275.492 296.801 M277.704 298.263 C 276.919 299.218,276.655 299.671,277.117 299.269 C 277.935 298.558,279.523 296.527,279.261 296.527 C 279.190 296.527,278.489 297.308,277.704 298.263 M124.314 300.297 C 124.314 300.360,124.849 300.895,125.503 301.486 L 126.691 302.559 125.617 301.371 C 124.616 300.263,124.314 300.015,124.314 300.297 M274.223 302.194 C 273.335 303.099,272.691 303.839,272.791 303.839 C 272.892 303.839,273.701 303.099,274.589 302.194 C 275.477 301.289,276.121 300.548,276.021 300.548 C 275.920 300.548,275.111 301.289,274.223 302.194 M276.799 302.133 L 275.537 303.656 277.074 302.211 C 277.919 301.416,278.611 300.717,278.611 300.657 C 278.611 300.237,277.874 300.837,276.799 302.133 M132.907 306.232 C 135.456 308.585,140.950 312.980,141.344 312.980 C 141.691 312.980,140.692 312.108,138.488 310.486 C 136.409 308.956,131.557 304.641,131.322 304.113 C 131.255 303.963,131.009 303.846,130.774 303.854 C 130.539 303.861,131.499 304.932,132.907 306.232 M125.777 304.671 C 125.777 304.726,127.052 306.001,128.611 307.505 L 131.444 310.238 128.711 307.404 C 126.173 304.772,125.777 304.404,125.777 304.671 M273.286 306.124 L 272.212 307.313 273.400 306.239 C 274.054 305.648,274.589 305.113,274.589 305.050 C 274.589 304.768,274.287 305.017,273.286 306.124 M265.448 307.169 C 256.243 315.451,240.008 324.826,230.984 327.070 C 230.429 327.208,229.890 327.458,229.786 327.626 C 229.683 327.793,230.959 327.465,232.623 326.896 C 242.381 323.561,250.812 319.030,259.598 312.398 C 262.817 309.968,267.696 305.708,267.276 305.694 C 267.176 305.691,266.353 306.354,265.448 307.169 M268.373 308.044 C 267.485 308.949,266.840 309.689,266.941 309.689 C 267.042 309.689,267.850 308.949,268.739 308.044 C 269.627 307.139,270.271 306.399,270.171 306.399 C 270.070 306.399,269.261 307.139,268.373 308.044 M132.013 308.135 C 132.024 308.286,132.559 308.810,133.201 309.300 L 134.369 310.191 133.295 309.026 C 132.178 307.814,131.979 307.676,132.013 308.135 M267.988 311.060 L 266.728 312.431 268.099 311.171 C 269.375 309.999,269.638 309.689,269.359 309.689 C 269.298 309.689,268.681 310.306,267.988 311.060 M264.876 311.243 L 263.803 312.431 264.991 311.358 C 265.644 310.767,266.179 310.232,266.179 310.169 C 266.179 309.887,265.877 310.135,264.876 311.243 M142.796 314.168 C 147.212 317.696,159.562 324.096,166.718 326.566 C 169.971 327.688,168.311 326.762,164.351 325.245 C 157.899 322.773,147.759 317.405,143.476 314.194 C 142.022 313.104,141.436 313.082,142.796 314.168 M259.049 315.754 L 257.952 316.697 259.141 315.910 C 259.794 315.478,260.329 315.053,260.329 314.966 C 260.329 314.692,260.174 314.788,259.049 315.754 M193.510 322.007 C 193.862 322.099,194.438 322.099,194.790 322.007 C 195.142 321.915,194.854 321.840,194.150 321.840 C 193.446 321.840,193.158 321.915,193.510 322.007 M205.210 322.007 C 205.562 322.099,206.138 322.099,206.490 322.007 C 206.842 321.915,206.554 321.840,205.850 321.840 C 205.146 321.840,204.858 321.915,205.210 322.007 M249.634 323.792 C 248.267 324.534,248.351 324.843,249.726 324.132 C 250.329 323.820,250.823 323.486,250.823 323.391 C 250.823 323.156,250.783 323.169,249.634 323.792 M171.304 327.980 C 171.395 328.128,171.879 328.327,172.378 328.423 C 172.878 328.518,173.212 328.475,173.120 328.327 C 173.029 328.179,172.545 327.980,172.046 327.884 C 171.546 327.789,171.212 327.832,171.304 327.980 M228.245 327.863 C 227.793 327.950,227.422 328.159,227.422 328.328 C 227.422 328.705,228.821 328.370,229.095 327.927 C 229.204 327.750,229.243 327.628,229.181 327.655 C 229.118 327.682,228.697 327.776,228.245 327.863 M174.040 328.695 C 174.040 329.054,182.987 330.992,183.802 330.810 C 184.164 330.729,183.581 330.533,182.507 330.375 C 181.432 330.216,179.087 329.715,177.296 329.261 C 175.505 328.807,174.040 328.552,174.040 328.695 M225.777 328.597 C 225.375 328.694,224.892 328.919,224.705 329.097 C 224.517 329.275,224.910 329.264,225.577 329.073 C 227.461 328.532,227.620 328.154,225.777 328.597 M222.669 329.331 C 222.166 329.421,221.590 329.657,221.389 329.856 C 220.974 330.265,222.859 329.900,223.766 329.395 C 224.343 329.074,224.162 329.063,222.669 329.331 M217.367 330.530 C 216.389 330.779,216.369 330.809,217.185 330.809 C 217.687 330.809,218.592 330.684,219.196 330.530 C 220.174 330.281,220.194 330.251,219.378 330.251 C 218.876 330.251,217.971 330.377,217.367 330.530 M186.106 331.280 C 188.312 331.673,190.042 331.639,188.117 331.240 C 187.313 331.074,186.161 330.949,185.558 330.963 C 184.735 330.981,184.872 331.061,186.106 331.280 M212.431 331.261 C 211.460 331.466,211.372 331.537,212.066 331.558 C 212.569 331.573,213.638 331.449,214.442 331.282 C 215.662 331.030,215.722 330.981,214.808 330.986 C 214.205 330.989,213.135 331.113,212.431 331.261 M192.687 332.041 C 195.817 332.346,205.805 332.351,206.865 332.048 C 207.323 331.917,203.786 331.810,199.004 331.810 C 194.223 331.810,191.380 331.914,192.687 332.041 M198.446 334.822 C 199.502 334.896,201.229 334.896,202.285 334.822 C 203.341 334.748,202.477 334.687,200.366 334.687 C 198.254 334.687,197.390 334.748,198.446 334.822 M197.184 336.653 C 198.954 336.720,201.751 336.720,203.400 336.652 C 205.049 336.584,203.601 336.529,200.183 336.530 C 196.764 336.530,195.415 336.586,197.184 336.653 " stroke="none" fill="#c0b1a4" fill-rule="evenodd"></path><path id="path3" d="M190.311 132.021 C 184.253 132.733,181.234 133.254,176.417 134.419 C 173.601 135.100,170.969 135.812,170.567 136.002 C 170.165 136.192,169.007 136.582,167.994 136.869 C 163.516 138.139,153.126 142.885,152.512 143.942 C 152.280 144.340,152.120 144.414,152.113 144.127 C 152.106 143.784,151.687 143.879,150.655 144.460 C 149.859 144.907,149.308 145.437,149.432 145.636 C 149.558 145.841,149.471 145.885,149.231 145.737 C 148.998 145.593,148.330 145.814,147.747 146.229 C 147.165 146.644,146.532 146.984,146.341 146.984 C 146.150 146.984,145.554 147.391,145.017 147.888 C 144.480 148.386,143.922 148.819,143.776 148.851 C 142.993 149.021,139.319 151.828,139.498 152.118 C 139.614 152.306,139.495 152.380,139.233 152.282 C 138.971 152.184,137.828 152.886,136.693 153.840 C 135.558 154.795,133.871 156.208,132.944 156.980 C 132.017 157.752,131.367 158.559,131.499 158.773 C 131.634 158.992,131.568 159.056,131.349 158.921 C 130.601 158.459,128.615 160.510,129.149 161.193 C 129.556 161.714,129.540 161.733,129.031 161.336 C 128.535 160.948,128.213 161.140,126.890 162.615 C 126.034 163.570,124.159 165.636,122.724 167.207 C 121.289 168.777,119.959 170.340,119.770 170.680 C 119.581 171.020,119.206 171.519,118.938 171.788 C 116.587 174.151,111.423 182.473,111.728 183.408 C 111.890 183.905,111.856 183.961,111.604 183.610 C 111.246 183.110,109.594 185.367,109.576 186.380 C 109.571 186.632,109.459 186.837,109.326 186.837 C 109.117 186.837,106.992 191.154,105.179 195.263 C 101.722 203.098,99.096 213.163,100.509 213.163 C 101.155 213.163,101.415 212.650,101.835 210.547 C 102.749 205.966,106.671 195.290,109.368 190.037 C 110.168 188.478,110.707 187.203,110.565 187.203 C 110.423 187.203,110.549 186.915,110.846 186.563 C 111.142 186.211,112.516 184.113,113.900 181.901 C 115.283 179.689,117.258 176.728,118.289 175.320 C 119.319 173.912,120.177 172.611,120.195 172.428 C 120.212 172.245,120.492 171.947,120.816 171.765 C 121.140 171.584,121.307 171.277,121.187 171.084 C 121.067 170.890,121.180 170.777,121.437 170.832 C 121.694 170.887,121.933 170.727,121.967 170.475 C 122.001 170.224,122.069 169.895,122.118 169.744 C 122.167 169.593,122.190 169.352,122.168 169.209 C 122.147 169.065,122.349 169.032,122.618 169.135 C 122.888 169.239,123.500 168.807,123.985 168.170 C 124.468 167.536,125.785 166.051,126.913 164.870 C 128.040 163.689,128.876 162.636,128.771 162.531 C 128.666 162.426,128.841 162.340,129.159 162.340 C 129.477 162.340,129.793 162.217,129.860 162.066 C 129.927 161.915,130.887 160.957,131.993 159.938 C 133.354 158.683,133.961 157.860,133.870 157.390 C 133.764 156.837,133.839 156.781,134.240 157.114 C 134.634 157.441,135.038 157.279,136.097 156.371 C 140.934 152.223,156.109 142.596,157.811 142.596 C 157.909 142.596,159.586 141.931,161.536 141.118 C 166.409 139.087,166.497 139.052,166.910 138.938 C 167.112 138.883,168.181 138.525,169.287 138.144 C 171.566 137.358,176.889 135.954,179.890 135.347 C 180.996 135.123,182.724 134.771,183.729 134.566 C 187.167 133.862,188.494 133.774,198.355 133.596 C 205.641 133.464,209.280 133.553,212.249 133.935 C 214.919 134.279,216.424 134.332,216.728 134.092 C 217.054 133.835,217.185 133.901,217.185 134.325 C 217.185 134.696,217.492 134.918,218.007 134.918 C 220.933 134.919,233.942 138.713,239.106 141.071 C 240.002 141.480,240.866 141.734,241.026 141.635 C 241.186 141.537,241.316 141.602,241.316 141.781 C 241.316 142.161,244.718 143.815,245.502 143.815 C 245.796 143.815,245.972 143.920,245.893 144.048 C 245.814 144.176,246.519 144.684,247.460 145.175 C 248.401 145.667,251.065 147.289,253.379 148.779 C 255.693 150.269,257.793 151.489,258.044 151.491 C 258.295 151.492,258.512 151.671,258.526 151.889 C 258.564 152.482,263.215 155.826,263.638 155.565 C 263.839 155.440,263.958 155.487,263.903 155.667 C 263.768 156.110,275.039 167.243,275.503 167.125 C 275.704 167.074,275.746 167.154,275.597 167.303 C 275.217 167.683,276.050 168.599,276.515 168.312 C 276.727 168.181,276.787 168.253,276.650 168.474 C 276.259 169.108,277.019 169.335,277.518 168.734 C 277.893 168.281,277.701 167.891,276.397 166.452 C 273.118 162.837,268.825 158.585,266.237 156.390 C 264.761 155.138,263.034 153.665,262.398 153.117 C 261.648 152.469,260.987 152.189,260.512 152.318 C 259.980 152.462,259.916 152.422,260.277 152.172 C 260.805 151.806,254.169 146.862,253.151 146.862 C 252.876 146.862,252.651 146.743,252.651 146.599 C 252.651 145.769,242.577 140.679,241.518 140.973 C 240.911 141.142,240.873 141.107,241.316 140.792 C 241.847 140.415,241.073 139.925,240.115 140.031 C 239.957 140.048,239.575 139.810,239.266 139.501 C 238.774 139.009,238.257 138.860,237.427 138.971 C 237.298 138.988,237.093 138.844,236.970 138.652 C 236.624 138.110,231.278 136.421,231.133 136.808 C 231.063 136.996,230.816 136.904,230.585 136.603 C 228.267 133.586,202.210 130.621,190.311 132.021 M198.446 146.154 C 199.301 146.231,200.699 146.231,201.554 146.154 C 202.409 146.077,201.709 146.014,200.000 146.014 C 198.291 146.014,197.591 146.077,198.446 146.154 M277.321 169.303 C 277.031 169.773,279.639 173.029,280.085 172.753 C 280.262 172.644,280.316 172.272,280.205 171.926 C 280.039 171.406,280.069 171.390,280.383 171.834 C 280.627 172.179,280.637 172.521,280.412 172.793 C 279.979 173.314,280.354 174.406,280.965 174.406 C 281.212 174.406,281.414 174.613,281.414 174.866 C 281.414 175.119,282.438 176.873,283.690 178.763 C 289.923 188.176,294.553 198.771,297.578 210.542 C 298.082 212.504,298.344 212.980,298.919 212.980 C 299.840 212.980,299.773 212.324,298.322 207.130 C 296.101 199.178,295.494 197.670,294.750 198.252 C 294.217 198.668,294.205 198.650,294.642 198.093 C 295.153 197.440,293.833 193.053,293.125 193.053 C 292.961 193.053,292.925 192.894,293.045 192.701 C 293.165 192.507,292.941 192.027,292.548 191.634 C 292.156 191.242,291.930 190.824,292.048 190.707 C 292.165 190.590,292.074 190.494,291.846 190.494 C 291.617 190.494,291.520 190.260,291.630 189.975 C 291.739 189.690,291.348 188.579,290.760 187.507 C 290.173 186.435,289.232 184.699,288.669 183.649 C 288.074 182.536,287.478 181.836,287.242 181.971 C 287.019 182.098,286.954 182.072,287.097 181.914 C 287.240 181.755,287.112 181.153,286.813 180.575 C 286.210 179.408,285.834 179.175,286.152 180.165 C 286.320 180.686,286.288 180.706,285.982 180.273 C 285.775 179.981,285.685 179.615,285.781 179.459 C 286.128 178.898,279.175 169.295,278.681 169.653 C 278.542 169.753,278.473 169.971,278.528 170.137 C 278.584 170.303,278.449 170.327,278.229 170.191 C 278.009 170.055,277.918 169.714,278.026 169.433 C 278.253 168.842,277.672 168.734,277.321 169.303 M136.540 173.035 L 135.466 174.223 136.654 173.149 C 137.762 172.148,138.011 171.846,137.728 171.846 C 137.665 171.846,137.131 172.381,136.540 173.035 M164.666 209.141 C 164.666 211.051,164.727 211.833,164.803 210.878 C 164.878 209.922,164.878 208.359,164.803 207.404 C 164.727 206.449,164.666 207.230,164.666 209.141 M170.849 209.141 C 170.849 210.046,170.920 210.416,171.008 209.963 C 171.095 209.511,171.095 208.771,171.008 208.318 C 170.920 207.866,170.849 208.236,170.849 209.141 M177.814 221.572 C 177.814 222.879,177.880 223.414,177.961 222.761 C 178.042 222.107,178.042 221.037,177.961 220.384 C 177.880 219.730,177.814 220.265,177.814 221.572 M184.029 223.035 C 184.029 224.342,184.096 224.877,184.177 224.223 C 184.258 223.569,184.258 222.500,184.177 221.846 C 184.096 221.193,184.029 221.728,184.029 223.035 M197.585 229.433 C 197.585 232.249,197.643 233.352,197.712 231.885 C 197.782 230.419,197.782 228.115,197.711 226.766 C 197.641 225.418,197.584 226.618,197.585 229.433 M164.619 227.057 C 164.619 227.761,164.694 228.048,164.786 227.697 C 164.878 227.345,164.878 226.769,164.786 226.417 C 164.694 226.065,164.619 226.353,164.619 227.057 M214.034 226.852 C 213.923 227.142,213.897 227.677,213.975 228.041 C 214.065 228.454,214.190 228.256,214.309 227.514 C 214.508 226.269,214.378 225.956,214.034 226.852 M112.018 234.004 C 112.018 236.115,112.079 236.979,112.153 235.923 C 112.226 234.867,112.226 233.140,112.153 232.084 C 112.079 231.028,112.018 231.892,112.018 234.004 M287.851 231.810 C 287.851 232.715,287.922 233.085,288.009 232.633 C 288.097 232.180,288.097 231.440,288.009 230.987 C 287.922 230.535,287.851 230.905,287.851 231.810 M184.035 234.369 C 184.035 235.878,184.100 236.495,184.179 235.740 C 184.257 234.986,184.257 233.752,184.179 232.998 C 184.100 232.244,184.035 232.861,184.035 234.369 M287.844 236.380 C 287.848 237.185,287.923 237.471,288.010 237.016 C 288.097 236.561,288.094 235.903,288.003 235.553 C 287.911 235.204,287.840 235.576,287.844 236.380 M162.320 237.934 L 161.060 239.305 162.431 238.045 C 163.708 236.872,163.971 236.563,163.691 236.563 C 163.630 236.563,163.013 237.180,162.320 237.934 M217.642 240.768 C 217.647 241.572,217.721 241.858,217.809 241.403 C 217.896 240.949,217.893 240.290,217.801 239.941 C 217.710 239.591,217.638 239.963,217.642 240.768 M197.533 242.230 C 197.537 243.035,197.612 243.321,197.699 242.866 C 197.787 242.411,197.783 241.753,197.692 241.403 C 197.600 241.054,197.529 241.426,197.533 242.230 M165.378 243.693 C 165.380 244.899,165.449 245.349,165.530 244.692 C 165.611 244.035,165.610 243.047,165.526 242.498 C 165.443 241.949,165.376 242.486,165.378 243.693 M244.241 243.144 L 239.671 243.362 244.128 243.436 C 246.789 243.480,248.677 243.363,248.812 243.144 C 248.936 242.943,248.987 242.812,248.925 242.853 C 248.863 242.894,246.755 243.025,244.241 243.144 M204.826 243.416 C 206.576 243.483,209.537 243.484,211.407 243.417 C 213.278 243.351,211.846 243.296,208.227 243.295 C 204.607 243.295,203.077 243.350,204.826 243.416 M224.800 248.312 C 224.866 249.929,225.017 251.156,225.136 251.038 C 225.426 250.747,225.243 245.953,224.929 245.629 C 224.792 245.487,224.734 246.695,224.800 248.312 M236.929 248.227 L 235.283 248.446 235.253 250.550 L 235.223 252.654 235.363 250.642 L 235.503 248.629 236.925 248.629 C 237.708 248.629,238.450 248.464,238.574 248.263 C 238.698 248.062,238.749 247.922,238.687 247.953 C 238.625 247.983,237.834 248.106,236.929 248.227 M165.375 250.457 C 165.375 251.563,165.443 252.016,165.527 251.463 C 165.611 250.910,165.611 250.005,165.527 249.452 C 165.443 248.899,165.375 249.351,165.375 250.457 M215.194 250.058 C 215.081 250.241,215.099 250.680,215.235 251.032 C 215.378 251.407,215.334 251.583,215.129 251.456 C 214.935 251.337,214.750 251.596,214.717 252.032 C 214.675 252.593,214.747 252.681,214.963 252.331 C 215.219 251.917,215.300 251.918,215.466 252.335 C 215.621 252.725,215.671 252.730,215.693 252.355 C 215.709 252.092,215.875 251.971,216.062 252.087 C 216.250 252.202,216.506 252.130,216.633 251.926 C 216.759 251.721,216.588 251.554,216.253 251.554 C 215.853 251.554,215.719 251.359,215.862 250.986 C 215.986 250.661,215.925 250.514,215.718 250.642 C 215.519 250.765,215.356 250.705,215.356 250.509 C 215.356 250.313,215.562 250.069,215.814 249.968 C 216.143 249.835,216.149 249.775,215.835 249.755 C 215.596 249.739,215.307 249.875,215.194 250.058 M100.388 255.906 C 99.455 257.415,107.781 280.026,109.297 280.102 C 109.678 280.121,109.717 280.193,109.413 280.316 C 108.890 280.527,109.075 280.910,112.150 286.011 C 113.210 287.768,114.077 289.316,114.077 289.450 C 114.077 289.996,115.977 292.137,116.290 291.944 C 116.476 291.829,116.542 291.960,116.437 292.234 C 116.276 292.653,117.387 294.372,119.447 296.892 C 125.128 303.840,125.498 304.223,126.095 303.756 C 126.610 303.354,126.631 303.368,126.245 303.864 C 125.748 304.501,129.013 308.159,129.577 307.596 C 129.732 307.440,129.805 307.505,129.738 307.741 C 129.568 308.338,134.261 312.651,134.845 312.434 C 135.107 312.337,135.229 312.407,135.116 312.589 C 135.003 312.772,136.105 313.851,137.565 314.986 C 139.541 316.524,140.250 316.905,140.338 316.478 C 140.403 316.163,140.618 315.905,140.816 315.905 C 141.014 315.905,141.075 316.069,140.951 316.271 C 140.826 316.472,140.899 316.636,141.112 316.636 C 141.325 316.636,141.499 316.389,141.499 316.088 C 141.499 315.786,141.355 315.539,141.179 315.539 C 141.003 315.539,139.467 314.408,137.766 313.025 C 135.233 310.965,134.612 310.610,134.329 311.058 C 134.045 311.508,133.973 311.469,133.925 310.836 C 133.893 310.408,132.680 308.917,131.193 307.479 C 127.852 304.246,128.420 304.819,125.615 301.856 C 124.296 300.463,123.218 299.177,123.218 298.997 C 123.218 298.818,122.849 298.788,122.398 298.931 C 121.669 299.163,121.633 299.125,122.077 298.590 C 122.402 298.198,122.433 297.989,122.165 297.989 C 121.940 297.989,121.755 297.807,121.755 297.584 C 121.755 297.361,120.965 296.168,120.000 294.933 C 118.245 292.686,117.683 291.898,115.826 289.077 C 113.889 286.135,111.489 281.946,110.408 279.621 C 109.957 278.651,109.437 277.992,109.224 278.124 C 109.011 278.255,108.954 278.182,109.094 277.955 C 109.231 277.734,108.610 275.836,107.714 273.739 C 105.429 268.389,103.924 264.062,102.797 259.600 C 101.865 255.908,101.106 254.744,100.388 255.906 M298.859 256.107 C 298.747 256.399,298.778 256.836,298.927 257.077 C 299.092 257.344,299.045 257.422,298.808 257.275 C 298.565 257.125,298.265 257.739,298.017 258.896 C 296.921 264.005,292.972 274.488,290.279 279.433 C 289.869 280.187,289.622 280.804,289.731 280.804 C 289.840 280.804,289.276 281.815,288.477 283.051 C 287.507 284.551,287.077 285.586,287.183 286.166 C 287.272 286.660,287.189 286.942,286.991 286.819 C 286.799 286.701,286.752 286.410,286.885 286.172 C 287.048 285.882,287.004 285.860,286.751 286.106 C 285.915 286.918,282.655 292.505,283.017 292.505 C 283.232 292.505,283.304 292.672,283.177 292.876 C 283.051 293.081,282.813 293.165,282.649 293.063 C 282.197 292.784,281.427 293.881,281.374 294.879 C 281.348 295.364,281.196 295.891,281.035 296.052 C 280.875 296.212,280.798 296.179,280.865 295.978 C 281.330 294.583,278.720 297.139,275.868 300.870 C 275.466 301.396,274.602 302.319,273.949 302.922 C 273.295 303.524,272.761 304.153,272.761 304.320 C 272.761 304.672,271.822 305.667,271.490 305.667 C 271.022 305.667,269.525 307.430,269.766 307.698 C 269.905 307.852,269.837 307.875,269.614 307.748 C 269.392 307.622,268.837 307.916,268.380 308.402 L 267.549 309.286 268.493 309.523 C 269.268 309.718,269.745 309.475,271.151 308.171 C 273.937 305.587,280.481 297.987,280.246 297.608 C 280.127 297.415,280.215 297.258,280.441 297.258 C 281.270 297.258,284.611 292.678,284.231 292.063 C 284.126 291.894,284.222 291.800,284.443 291.856 C 284.664 291.911,285.129 291.463,285.475 290.859 C 285.822 290.256,286.196 289.680,286.305 289.580 C 287.590 288.400,291.494 280.902,290.940 280.677 C 290.665 280.566,290.718 280.485,291.080 280.468 C 292.762 280.385,300.893 258.320,300.051 256.125 C 299.783 255.426,299.124 255.416,298.859 256.107 M224.899 256.764 L 224.394 257.587 225.268 256.859 C 225.749 256.459,226.211 256.089,226.295 256.037 C 226.379 255.984,226.213 255.941,225.926 255.941 C 225.639 255.941,225.177 256.312,224.899 256.764 M235.218 258.501 C 235.218 259.808,235.284 260.343,235.365 259.689 C 235.446 259.036,235.446 257.966,235.365 257.313 C 235.284 256.659,235.218 257.194,235.218 258.501 M205.569 258.135 C 205.569 258.839,205.645 259.127,205.736 258.775 C 205.828 258.423,205.828 257.847,205.736 257.495 C 205.645 257.144,205.569 257.431,205.569 258.135 M224.863 260.512 C 224.863 262.087,224.932 263.307,225.017 263.222 C 225.283 262.956,225.363 258.148,225.107 257.892 C 224.973 257.757,224.863 258.937,224.863 260.512 M242.779 259.028 C 242.779 259.720,242.905 260.364,243.060 260.460 C 243.214 260.555,243.279 259.989,243.204 259.201 C 243.036 257.433,242.779 257.329,242.779 259.028 M216.088 258.440 C 216.088 258.675,215.635 258.889,215.082 258.916 C 214.159 258.962,214.148 258.980,214.942 259.130 C 215.831 259.299,216.782 258.708,216.338 258.263 C 216.200 258.126,216.088 258.205,216.088 258.440 M214.899 267.168 C 215.352 267.256,216.092 267.256,216.545 267.168 C 216.997 267.081,216.627 267.010,215.722 267.010 C 214.817 267.010,214.447 267.081,214.899 267.168 M266.127 310.470 C 265.458 311.095,263.700 312.517,262.220 313.630 C 260.741 314.744,259.456 315.848,259.366 316.084 C 259.275 316.321,258.985 316.514,258.721 316.514 C 258.329 316.514,255.153 318.522,254.479 319.196 C 254.378 319.296,253.684 319.690,252.936 320.070 C 252.160 320.464,251.674 320.936,251.806 321.167 C 251.933 321.390,251.908 321.456,251.750 321.313 C 251.347 320.950,245.693 324.001,245.962 324.437 C 246.083 324.633,246.005 324.683,245.788 324.549 C 245.128 324.141,243.545 325.063,243.756 325.731 C 243.909 326.212,243.875 326.228,243.580 325.813 C 243.278 325.389,242.595 325.566,239.615 326.841 C 237.635 327.688,235.644 328.532,235.192 328.716 C 234.739 328.901,234.367 329.261,234.364 329.517 C 234.360 329.841,234.277 329.859,234.089 329.574 C 233.898 329.284,233.243 329.362,231.810 329.847 C 218.829 334.237,199.588 336.027,187.020 334.014 C 181.865 333.188,180.175 332.850,175.722 331.751 C 172.927 331.061,169.472 330.071,168.044 329.551 C 166.616 329.031,165.088 328.573,164.649 328.535 C 164.210 328.497,163.632 328.284,163.365 328.063 C 162.783 327.580,158.698 325.970,158.029 325.960 C 157.769 325.957,157.440 325.772,157.297 325.551 C 156.871 324.887,154.671 323.900,154.229 324.173 C 153.998 324.316,153.918 324.265,154.047 324.056 C 154.173 323.852,153.586 323.374,152.743 322.994 C 151.899 322.614,149.888 321.440,148.274 320.384 C 146.660 319.328,145.147 318.464,144.912 318.464 C 144.677 318.464,144.430 318.338,144.363 318.183 C 144.114 317.610,142.133 316.288,141.816 316.484 C 141.635 316.595,141.581 316.838,141.695 317.023 C 141.809 317.208,141.647 317.261,141.335 317.141 C 141.023 317.022,140.773 317.065,140.779 317.237 C 140.796 317.712,146.283 321.180,147.018 321.180 C 147.372 321.180,147.585 321.304,147.492 321.455 C 147.138 322.027,159.911 328.702,161.359 328.702 C 161.698 328.702,161.974 328.867,161.974 329.068 C 161.974 329.269,162.276 329.433,162.645 329.433 C 163.013 329.433,163.418 329.536,163.543 329.661 C 164.360 330.478,174.738 333.409,176.135 333.218 C 176.905 333.113,176.984 333.151,176.464 333.379 C 175.789 333.675,176.689 333.908,182.633 334.976 C 190.359 336.365,204.901 336.879,210.786 335.971 C 212.194 335.754,213.592 335.575,213.894 335.574 C 217.591 335.559,230.938 332.153,236.929 329.696 C 237.431 329.490,238.037 329.280,238.274 329.230 C 240.475 328.769,253.001 322.213,257.027 319.417 C 260.373 317.093,261.972 315.787,261.874 315.458 C 261.819 315.272,261.924 315.212,262.108 315.326 C 262.395 315.503,268.739 310.623,268.739 310.225 C 268.739 309.319,267.205 309.462,266.127 310.470 M196.069 322.017 C 196.622 322.101,197.527 322.101,198.080 322.017 C 198.633 321.933,198.181 321.865,197.075 321.865 C 195.969 321.865,195.516 321.933,196.069 322.017 M202.468 322.013 C 202.920 322.100,203.661 322.100,204.113 322.013 C 204.566 321.926,204.196 321.855,203.291 321.855 C 202.386 321.855,202.016 321.926,202.468 322.013 " stroke="none" fill="#9f938c" fill-rule="evenodd"></path><path id="path4" d="M280.149 172.121 C 280.212 172.496,280.056 172.719,279.772 172.660 C 279.505 172.605,279.397 172.736,279.530 172.952 C 279.882 173.522,280.814 172.663,280.561 172.003 C 280.282 171.275,280.019 171.350,280.149 172.121 M236.058 233.474 C 235.938 233.786,235.989 233.950,236.170 233.838 C 236.352 233.725,236.580 233.840,236.677 234.093 C 236.775 234.345,236.836 234.182,236.814 233.729 C 236.767 232.780,236.375 232.648,236.058 233.474 M234.182 233.773 C 234.851 234.262,234.111 235.177,233.211 234.973 C 233.077 234.943,232.874 235.011,232.760 235.125 C 232.646 235.240,233.035 235.333,233.624 235.333 C 234.214 235.333,234.613 235.199,234.511 235.034 C 234.409 234.870,234.583 234.735,234.896 234.735 C 235.210 234.735,235.466 234.603,235.466 234.442 C 235.466 233.962,234.628 233.272,234.043 233.272 C 233.628 233.272,233.661 233.391,234.182 233.773 M238.391 234.735 C 238.391 235.573,238.542 236.147,238.732 236.030 C 239.152 235.770,239.127 233.684,238.701 233.421 C 238.531 233.315,238.391 233.907,238.391 234.735 M225.777 235.101 C 225.653 235.302,225.899 235.466,226.325 235.466 C 226.751 235.466,226.998 235.302,226.874 235.101 C 226.750 234.899,226.503 234.735,226.325 234.735 C 226.148 234.735,225.901 234.899,225.777 235.101 M220.914 235.827 C 220.250 235.984,219.604 236.216,219.478 236.342 C 219.126 236.693,221.707 236.144,222.102 235.783 C 222.293 235.609,222.376 235.483,222.285 235.504 C 222.195 235.524,221.578 235.670,220.914 235.827 M232.176 237.609 C 232.176 237.782,232.587 237.846,233.090 237.749 C 233.592 237.653,234.004 237.512,234.004 237.435 C 234.004 237.357,233.592 237.294,233.090 237.294 C 232.587 237.294,232.176 237.436,232.176 237.609 M235.649 238.391 C 235.773 238.592,236.259 238.757,236.728 238.757 C 237.198 238.757,237.676 239.004,237.792 239.305 C 238.061 240.007,238.635 240.018,238.635 239.321 C 238.635 239.029,238.517 238.862,238.372 238.952 C 238.227 239.041,237.905 238.869,237.657 238.570 C 237.158 237.969,235.285 237.802,235.649 238.391 M204.132 267.183 C 206.103 267.249,209.230 267.249,211.079 267.183 C 212.929 267.116,211.316 267.062,207.495 267.063 C 203.675 267.063,202.161 267.117,204.132 267.183 M218.190 267.175 C 218.844 267.256,219.913 267.256,220.567 267.175 C 221.220 267.094,220.686 267.027,219.378 267.027 C 218.071 267.027,217.537 267.094,218.190 267.175 M226.234 267.183 C 228.496 267.248,232.198 267.248,234.461 267.183 C 236.723 267.119,234.872 267.067,230.347 267.067 C 225.823 267.067,223.972 267.119,226.234 267.183 M241.603 267.180 C 242.665 267.254,244.311 267.254,245.259 267.179 C 246.208 267.104,245.338 267.043,243.327 267.044 C 241.316 267.045,240.540 267.106,241.603 267.180 M281.134 294.059 C 280.972 294.465,280.962 296.125,281.122 295.965 C 281.346 295.741,281.501 293.967,281.296 293.967 C 281.227 293.967,281.154 294.008,281.134 294.059 M133.919 310.761 C 133.949 311.149,134.103 311.386,134.262 311.288 C 134.668 311.037,134.625 310.055,134.209 310.055 C 134.021 310.055,133.890 310.373,133.919 310.761 M140.497 316.558 C 140.566 317.471,141.713 317.387,141.756 316.466 C 141.775 316.057,141.711 315.928,141.614 316.179 C 141.517 316.431,141.278 316.636,141.081 316.636 C 140.885 316.636,140.826 316.472,140.951 316.271 C 141.075 316.069,141.013 315.905,140.812 315.905 C 140.612 315.905,140.470 316.199,140.497 316.558 " stroke="none" fill="#b09c83" fill-rule="evenodd"></path></g></svg>